TITLE ""
FILE "P1Q_t_1030-1038.mp3" MP3
  TRACK 01 AUDIO
    TITLE "P1Q_t_1030-1038_01"
    INDEX 01 00:00:00
  TRACK 02 AUDIO
    TITLE "P1Q_t_1030-1038_02"
    INDEX 01 00:01:10
  TRACK 03 AUDIO
    TITLE "P1Q_t_1030-1038_03"
    INDEX 01 00:01:31
  TRACK 04 AUDIO
    TITLE "P1Q_t_1030-1038_04"
    INDEX 01 00:03:28
  TRACK 05 AUDIO
    TITLE "P1Q_t_1030-1038_05"
    INDEX 01 00:03:48
  TRACK 06 AUDIO
    TITLE "P1Q_t_1030-1038_06"
    INDEX 01 00:08:37
  TRACK 07 AUDIO
    TITLE "P1Q_t_1030-1038_07"
    INDEX 01 00:09:07
  TRACK 08 AUDIO
    TITLE "P1Q_t_1030-1038_08"
    INDEX 01 00:10:24
  TRACK 09 AUDIO
    TITLE "P1Q_t_1030-1038_09"
    INDEX 01 00:10:44
  TRACK 10 AUDIO
    TITLE "P1Q_t_1030-1038_10"
    INDEX 01 00:13:60
  TRACK 11 AUDIO
    TITLE "P1Q_t_1030-1038_11"
    INDEX 01 00:14:07
  TRACK 12 AUDIO
    TITLE "P1Q_t_1030-1038_12"
    INDEX 01 00:17:66
  TRACK 13 AUDIO
    TITLE "P1Q_t_1030-1038_13"
    INDEX 01 00:18:38
  TRACK 14 AUDIO
    TITLE "P1Q_t_1030-1038_14"
    INDEX 01 00:19:47
  TRACK 15 AUDIO
    TITLE "P1Q_t_1030-1038_15"
    INDEX 01 00:19:66
  TRACK 16 AUDIO
    TITLE "P1Q_t_1030-1038_16"
    INDEX 01 00:23:03
  TRACK 17 AUDIO
    TITLE "P1Q_t_1030-1038_17"
    INDEX 01 00:23:21
  TRACK 18 AUDIO
    TITLE "P1Q_t_1030-1038_18"
    INDEX 01 00:27:25
  TRACK 19 AUDIO
    TITLE "P1Q_t_1030-1038_19"
    INDEX 01 00:27:68
  TRACK 20 AUDIO
    TITLE "P1Q_t_1030-1038_20"
    INDEX 01 00:29:02
  TRACK 21 AUDIO
    TITLE "P1Q_t_1030-1038_21"
    INDEX 01 00:29:45
  TRACK 22 AUDIO
    TITLE "P1Q_t_1030-1038_22"
    INDEX 01 00:30:66
  TRACK 23 AUDIO
    TITLE "P1Q_t_1030-1038_23"
    INDEX 01 00:31:13
  TRACK 24 AUDIO
    TITLE "P1Q_t_1030-1038_24"
    INDEX 01 00:33:16
  TRACK 25 AUDIO
    TITLE "P1Q_t_1030-1038_25"
    INDEX 01 00:33:35
  TRACK 26 AUDIO
    TITLE "P1Q_t_1030-1038_26"
    INDEX 01 00:37:09
  TRACK 27 AUDIO
    TITLE "P1Q_t_1030-1038_27"
    INDEX 01 00:37:55
  TRACK 28 AUDIO
    TITLE "P1Q_t_1030-1038_28"
    INDEX 01 00:38:64
  TRACK 29 AUDIO
    TITLE "P1Q_t_1030-1038_29"
    INDEX 01 00:39:10
  TRACK 30 AUDIO
    TITLE "P1Q_t_1030-1038_30"
    INDEX 01 00:41:54
  TRACK 31 AUDIO
    TITLE "P1Q_t_1030-1038_31"
    INDEX 01 00:41:74
  TRACK 32 AUDIO
    TITLE "P1Q_t_1030-1038_32"
    INDEX 01 00:45:46
  TRACK 33 AUDIO
    TITLE "P1Q_t_1030-1038_33"
    INDEX 01 00:46:18
  TRACK 34 AUDIO
    TITLE "P1Q_t_1030-1038_34"
    INDEX 01 00:47:33
  TRACK 35 AUDIO
    TITLE "P1Q_t_1030-1038_35"
    INDEX 01 00:47:57
  TRACK 36 AUDIO
    TITLE "P1Q_t_1030-1038_36"
    INDEX 01 00:49:58
  TRACK 37 AUDIO
    TITLE "P1Q_t_1030-1038_37"
    INDEX 01 00:49:75
  TRACK 38 AUDIO
    TITLE "P1Q_t_1030-1038_38"
    INDEX 01 00:54:14
  TRACK 39 AUDIO
    TITLE "P1Q_t_1030-1038_39"
    INDEX 01 00:54:59
  TRACK 40 AUDIO
    TITLE "P1Q_t_1030-1038_40"
    INDEX 01 00:56:13
  TRACK 41 AUDIO
    TITLE "P1Q_t_1030-1038_41"
    INDEX 01 00:56:32
  TRACK 42 AUDIO
    TITLE "P1Q_t_1030-1038_42"
    INDEX 01 00:58:57
  TRACK 43 AUDIO
    TITLE "P1Q_t_1030-1038_43"
    INDEX 01 00:59:01
  TRACK 44 AUDIO
    TITLE "P1Q_t_1030-1038_44"
    INDEX 01 01:04:32
  TRACK 45 AUDIO
    TITLE "P1Q_t_1030-1038_45"
    INDEX 01 01:05:02
  TRACK 46 AUDIO
    TITLE "P1Q_t_1030-1038_46"
    INDEX 01 01:06:23
  TRACK 47 AUDIO
    TITLE "P1Q_t_1030-1038_47"
    INDEX 01 01:06:44
  TRACK 48 AUDIO
    TITLE "P1Q_t_1030-1038_48"
    INDEX 01 01:11:55
  TRACK 49 AUDIO
    TITLE "P1Q_t_1030-1038_49"
    INDEX 01 01:12:02
  TRACK 50 AUDIO
    TITLE "P1Q_t_1030-1038_50"
    INDEX 01 01:17:23
  TRACK 51 AUDIO
    TITLE "P1Q_t_1030-1038_51"
    INDEX 01 01:17:68
  TRACK 52 AUDIO
    TITLE "P1Q_t_1030-1038_52"
    INDEX 01 01:19:02
  TRACK 53 AUDIO
    TITLE "P1Q_t_1030-1038_53"
    INDEX 01 01:19:22
  TRACK 54 AUDIO
    TITLE "P1Q_t_1030-1038_54"
    INDEX 01 01:22:55
  TRACK 55 AUDIO
    TITLE "P1Q_t_1030-1038_55"
    INDEX 01 01:22:73
  TRACK 56 AUDIO
    TITLE "P1Q_t_1030-1038_56"
    INDEX 01 01:26:73
